<svg aria-roledescription="er" viewBox="0 0 481.99029541015625 293" style="max-width: 481.99px; background-color: white;" xmlns:xlink="http://www.w3.org/1999/xlink" xmlns="http://www.w3.org/2000/svg" width="100%" id="mermaid-0"><style>#mermaid-0{font-family:"trebuchet ms",verdana,arial,sans-serif;font-size:16px;fill:#000000;}#mermaid-0 .error-icon{fill:#552222;}#mermaid-0 .error-text{fill:#552222;stroke:#552222;}#mermaid-0 .edge-thickness-normal{stroke-width:2px;}#mermaid-0 .edge-thickness-thick{stroke-width:3.5px;}#mermaid-0 .edge-pattern-solid{stroke-dasharray:0;}#mermaid-0 .edge-pattern-dashed{stroke-dasharray:3;}#mermaid-0 .edge-pattern-dotted{stroke-dasharray:2;}#mermaid-0 .marker{fill:#000000;stroke:#000000;}#mermaid-0 .marker.cross{stroke:#000000;}#mermaid-0 svg{font-family:"trebuchet ms",verdana,arial,sans-serif;font-size:16px;}#mermaid-0 .entityBox{fill:#cde498;stroke:#13540c;}#mermaid-0 .attributeBoxOdd{fill:#ffffff;stroke:#13540c;}#mermaid-0 .attributeBoxEven{fill:#f2f2f2;stroke:#13540c;}#mermaid-0 .relationshipLabelBox{fill:hsl(78.1578947368, 58.4615384615%, 84.5098039216%);opacity:0.7;background-color:hsl(78.1578947368, 58.4615384615%, 84.5098039216%);}#mermaid-0 .relationshipLabelBox rect{opacity:0.5;}#mermaid-0 .relationshipLine{stroke:#000000;}#mermaid-0 .entityTitleText{text-anchor:middle;font-size:18px;fill:#000000;}#mermaid-0 :root{--mermaid-font-family:"trebuchet ms",verdana,arial,sans-serif;}</style><g/><defs><marker orient="auto" markerHeight="18" markerWidth="18" refY="9" refX="0" id="ONLY_ONE_START"><path d="M9,0 L9,18 M15,0 L15,18" fill="none" stroke="gray"/></marker></defs><defs><marker orient="auto" markerHeight="18" markerWidth="18" refY="9" refX="18" id="ONLY_ONE_END"><path d="M3,0 L3,18 M9,0 L9,18" fill="none" stroke="gray"/></marker></defs><defs><marker orient="auto" markerHeight="18" markerWidth="30" refY="9" refX="0" id="ZERO_OR_ONE_START"><circle r="6" cy="9" cx="21" fill="white" stroke="gray"/><path d="M9,0 L9,18" fill="none" stroke="gray"/></marker></defs><defs><marker orient="auto" markerHeight="18" markerWidth="30" refY="9" refX="30" id="ZERO_OR_ONE_END"><circle r="6" cy="9" cx="9" fill="white" stroke="gray"/><path d="M21,0 L21,18" fill="none" stroke="gray"/></marker></defs><defs><marker orient="auto" markerHeight="36" markerWidth="45" refY="18" refX="18" id="ONE_OR_MORE_START"><path d="M0,18 Q 18,0 36,18 Q 18,36 0,18 M42,9 L42,27" fill="none" stroke="gray"/></marker></defs><defs><marker orient="auto" markerHeight="36" markerWidth="45" refY="18" refX="27" id="ONE_OR_MORE_END"><path d="M3,9 L3,27 M9,18 Q27,0 45,18 Q27,36 9,18" fill="none" stroke="gray"/></marker></defs><defs><marker orient="auto" markerHeight="36" markerWidth="57" refY="18" refX="18" id="ZERO_OR_MORE_START"><circle r="6" cy="18" cx="48" fill="white" stroke="gray"/><path d="M0,18 Q18,0 36,18 Q18,36 0,18" fill="none" stroke="gray"/></marker></defs><defs><marker orient="auto" markerHeight="36" markerWidth="57" refY="18" refX="39" id="ZERO_OR_MORE_END"><circle r="6" cy="18" cx="9" fill="white" stroke="gray"/><path d="M21,18 Q39,0 57,18 Q39,36 21,18" fill="none" stroke="gray"/></marker></defs><path style="stroke: gray; fill: none;" marker-start="url(#ZERO_OR_MORE_START)" marker-end="url(#ONLY_ONE_END)" d="M87.921875,86L87.921875,94.33333333333333C87.921875,102.66666666666667,87.921875,119.33333333333333,92.37820298573975,136C96.83453097147951,152.66666666666666,105.747186942959,169.33333333333334,110.20351492869877,177.66666666666666L114.6598429144385,186" class="er relationshipLine"/><path style="stroke: gray; fill: none;" marker-start="url(#ZERO_OR_MORE_START)" marker-end="url(#ONLY_ONE_END)" d="M371.5094628391496,75.5L377.58376002790465,85.58333333333333C383.65805721665964,95.66666666666667,395.80665159416964,115.83333333333333,401.8809487829247,136C407.9552459716797,156.16666666666666,407.9552459716797,176.33333333333334,407.9552459716797,186.41666666666666L407.9552459716797,196.5" class="er relationshipLine"/><path style="stroke: gray; fill: none;" marker-start="url(#ZERO_OR_MORE_START)" marker-end="url(#ONLY_ONE_END)" d="M327.84524894622433,75.5L314.35150953852025,85.58333333333333C300.8577701308162,95.66666666666667,273.8702913154081,115.83333333333333,250.66523840503024,134.25C227.4601854946524,152.66666666666666,208.0375584893048,169.33333333333334,198.326244986631,177.66666666666666L188.6149314839572,186" class="er relationshipLine"/><g transform="translate(69.81207275390625,186 )" id="entity-habits-85f363ce-e8cd-4fbb-be21-d23122da7439"><rect height="87" width="136.2196044921875" y="0" x="0" class="er entityBox"/><text style="dominant-baseline: middle; text-anchor: middle; font-size: 12px;" transform="translate(68.10980224609375,12)" y="0" x="0" id="text-entity-habits-85f363ce-e8cd-4fbb-be21-d23122da7439" class="er entityLabel">habits</text><rect height="21" width="54.113128662109375" y="24" x="0" class="er attributeBoxOdd"/><text style="dominant-baseline: middle; font-size: 10.2px;" transform="translate(5,34.5)" y="0" x="0" id="text-entity-habits-85f363ce-e8cd-4fbb-be21-d23122da7439-attr-1-type" class="er entityLabel">String</text><rect height="21" width="58.311492919921875" y="24" x="54.113128662109375" class="er attributeBoxOdd"/><text style="dominant-baseline: middle; font-size: 10.2px;" transform="translate(59.113128662109375,34.5)" y="0" x="0" id="text-entity-habits-85f363ce-e8cd-4fbb-be21-d23122da7439-attr-1-name" class="er entityLabel">id</text><rect height="21" width="23.79498291015625" y="24" x="112.42462158203125" class="er attributeBoxOdd"/><text style="dominant-baseline: middle; font-size: 10.2px;" transform="translate(117.42462158203125,34.5)" y="0" x="0" id="text-entity-habits-85f363ce-e8cd-4fbb-be21-d23122da7439-attr-1-key" class="er entityLabel">PK</text><rect height="21" width="54.113128662109375" y="45" x="0" class="er attributeBoxEven"/><text style="dominant-baseline: middle; font-size: 10.2px;" transform="translate(5,55.5)" y="0" x="0" id="text-entity-habits-85f363ce-e8cd-4fbb-be21-d23122da7439-attr-2-type" class="er entityLabel">String</text><rect height="21" width="58.311492919921875" y="45" x="54.113128662109375" class="er attributeBoxEven"/><text style="dominant-baseline: middle; font-size: 10.2px;" transform="translate(59.113128662109375,55.5)" y="0" x="0" id="text-entity-habits-85f363ce-e8cd-4fbb-be21-d23122da7439-attr-2-name" class="er entityLabel">title</text><rect height="21" width="23.79498291015625" y="45" x="112.42462158203125" class="er attributeBoxEven"/><text style="dominant-baseline: middle; font-size: 10.2px;" transform="translate(117.42462158203125,55.5)" y="0" x="0" id="text-entity-habits-85f363ce-e8cd-4fbb-be21-d23122da7439-attr-2-key" class="er entityLabel"/><rect height="21" width="54.113128662109375" y="66" x="0" class="er attributeBoxOdd"/><text style="dominant-baseline: middle; font-size: 10.2px;" transform="translate(5,76.5)" y="0" x="0" id="text-entity-habits-85f363ce-e8cd-4fbb-be21-d23122da7439-attr-3-type" class="er entityLabel">DateTime</text><rect height="21" width="58.311492919921875" y="66" x="54.113128662109375" class="er attributeBoxOdd"/><text style="dominant-baseline: middle; font-size: 10.2px;" transform="translate(59.113128662109375,76.5)" y="0" x="0" id="text-entity-habits-85f363ce-e8cd-4fbb-be21-d23122da7439-attr-3-name" class="er entityLabel">created_at</text><rect height="21" width="23.79498291015625" y="66" x="112.42462158203125" class="er attributeBoxOdd"/><text style="dominant-baseline: middle; font-size: 10.2px;" transform="translate(117.42462158203125,76.5)" y="0" x="0" id="text-entity-habits-85f363ce-e8cd-4fbb-be21-d23122da7439-attr-3-key" class="er entityLabel"/></g><g transform="translate(353.92018127441406,196.5 )" id="entity-Days-c9d09306-9cd0-4888-9d04-3fa32cc2f5a3"><rect height="66" width="108.07012939453125" y="0" x="0" class="er entityBox"/><text style="dominant-baseline: middle; text-anchor: middle; font-size: 12px;" transform="translate(54.035064697265625,12)" y="0" x="0" id="text-entity-Days-c9d09306-9cd0-4888-9d04-3fa32cc2f5a3" class="er entityLabel">Days</text><rect height="21" width="54.113128662109375" y="24" x="0" class="er attributeBoxOdd"/><text style="dominant-baseline: middle; font-size: 10.2px;" transform="translate(5,34.5)" y="0" x="0" id="text-entity-Days-c9d09306-9cd0-4888-9d04-3fa32cc2f5a3-attr-1-type" class="er entityLabel">String</text><rect height="21" width="30.162017822265625" y="24" x="54.113128662109375" class="er attributeBoxOdd"/><text style="dominant-baseline: middle; font-size: 10.2px;" transform="translate(59.113128662109375,34.5)" y="0" x="0" id="text-entity-Days-c9d09306-9cd0-4888-9d04-3fa32cc2f5a3-attr-1-name" class="er entityLabel">id</text><rect height="21" width="23.79498291015625" y="24" x="84.275146484375" class="er attributeBoxOdd"/><text style="dominant-baseline: middle; font-size: 10.2px;" transform="translate(89.275146484375,34.5)" y="0" x="0" id="text-entity-Days-c9d09306-9cd0-4888-9d04-3fa32cc2f5a3-attr-1-key" class="er entityLabel">PK</text><rect height="21" width="54.113128662109375" y="45" x="0" class="er attributeBoxEven"/><text style="dominant-baseline: middle; font-size: 10.2px;" transform="translate(5,55.5)" y="0" x="0" id="text-entity-Days-c9d09306-9cd0-4888-9d04-3fa32cc2f5a3-attr-2-type" class="er entityLabel">DateTime</text><rect height="21" width="30.162017822265625" y="45" x="54.113128662109375" class="er attributeBoxEven"/><text style="dominant-baseline: middle; font-size: 10.2px;" transform="translate(59.113128662109375,55.5)" y="0" x="0" id="text-entity-Days-c9d09306-9cd0-4888-9d04-3fa32cc2f5a3-attr-2-name" class="er entityLabel">date</text><rect height="21" width="23.79498291015625" y="45" x="84.275146484375" class="er attributeBoxEven"/><text style="dominant-baseline: middle; font-size: 10.2px;" transform="translate(89.275146484375,55.5)" y="0" x="0" id="text-entity-Days-c9d09306-9cd0-4888-9d04-3fa32cc2f5a3-attr-2-key" class="er entityLabel"/></g><g transform="translate(20,20 )" id="entity-HabitWeeakDays-9c9ad801-e6bd-43c2-9912-ffd1c430b393"><rect height="66" width="135.84375" y="0" x="0" class="er entityBox"/><text style="dominant-baseline: middle; text-anchor: middle; font-size: 12px;" transform="translate(67.921875,12)" y="0" x="0" id="text-entity-HabitWeeakDays-9c9ad801-e6bd-43c2-9912-ffd1c430b393" class="er entityLabel">Habit_Weeak_Days</text><rect height="21" width="42.72100830078125" y="24" x="0" class="er attributeBoxOdd"/><text style="dominant-baseline: middle; font-size: 10.2px;" transform="translate(5,34.5)" y="0" x="0" id="text-entity-HabitWeeakDays-9c9ad801-e6bd-43c2-9912-ffd1c430b393-attr-1-type" class="er entityLabel">String</text><rect height="21" width="63.553802490234375" y="24" x="42.72100830078125" class="er attributeBoxOdd"/><text style="dominant-baseline: middle; font-size: 10.2px;" transform="translate(47.72100830078125,34.5)" y="0" x="0" id="text-entity-HabitWeeakDays-9c9ad801-e6bd-43c2-9912-ffd1c430b393-attr-1-name" class="er entityLabel">id</text><rect height="21" width="29.568939208984375" y="24" x="106.27481079101562" class="er attributeBoxOdd"/><text style="dominant-baseline: middle; font-size: 10.2px;" transform="translate(111.27481079101562,34.5)" y="0" x="0" id="text-entity-HabitWeeakDays-9c9ad801-e6bd-43c2-9912-ffd1c430b393-attr-1-key" class="er entityLabel">PK</text><rect height="21" width="42.72100830078125" y="45" x="0" class="er attributeBoxEven"/><text style="dominant-baseline: middle; font-size: 10.2px;" transform="translate(5,55.5)" y="0" x="0" id="text-entity-HabitWeeakDays-9c9ad801-e6bd-43c2-9912-ffd1c430b393-attr-2-type" class="er entityLabel">Int</text><rect height="21" width="63.553802490234375" y="45" x="42.72100830078125" class="er attributeBoxEven"/><text style="dominant-baseline: middle; font-size: 10.2px;" transform="translate(47.72100830078125,55.5)" y="0" x="0" id="text-entity-HabitWeeakDays-9c9ad801-e6bd-43c2-9912-ffd1c430b393-attr-2-name" class="er entityLabel">week_day</text><rect height="21" width="29.568939208984375" y="45" x="106.27481079101562" class="er attributeBoxEven"/><text style="dominant-baseline: middle; font-size: 10.2px;" transform="translate(111.27481079101562,55.5)" y="0" x="0" id="text-entity-HabitWeeakDays-9c9ad801-e6bd-43c2-9912-ffd1c430b393-attr-2-key" class="er entityLabel"/></g><g transform="translate(307.9552459716797,30.5 )" id="entity-dayhabits-9f680d0e-a720-49d7-a03c-6d030c71377e"><rect height="45" width="100" y="0" x="0" class="er entityBox"/><text style="dominant-baseline: middle; text-anchor: middle; font-size: 12px;" transform="translate(50,12)" y="0" x="0" id="text-entity-dayhabits-9f680d0e-a720-49d7-a03c-6d030c71377e" class="er entityLabel">day_habits</text><rect height="21" width="43.94526163736979" y="24" x="0" class="er attributeBoxOdd"/><text style="dominant-baseline: middle; font-size: 10.2px;" transform="translate(5,34.5)" y="0" x="0" id="text-entity-dayhabits-9f680d0e-a720-49d7-a03c-6d030c71377e-attr-1-type" class="er entityLabel">String</text><rect height="21" width="25.261545817057293" y="24" x="43.94526163736979" class="er attributeBoxOdd"/><text style="dominant-baseline: middle; font-size: 10.2px;" transform="translate(48.94526163736979,34.5)" y="0" x="0" id="text-entity-dayhabits-9f680d0e-a720-49d7-a03c-6d030c71377e-attr-1-name" class="er entityLabel">id</text><rect height="21" width="30.793192545572918" y="24" x="69.20680745442708" class="er attributeBoxOdd"/><text style="dominant-baseline: middle; font-size: 10.2px;" transform="translate(74.20680745442708,34.5)" y="0" x="0" id="text-entity-dayhabits-9f680d0e-a720-49d7-a03c-6d030c71377e-attr-1-key" class="er entityLabel">PK</text></g><rect height="14" width="26.6875" y="131.1707000732422" x="79.63970184326172" class="er relationshipLabelBox"/><text style="text-anchor: middle; dominant-baseline: middle; font-size: 12px;" y="138.1707000732422" x="92.98345184326172" id="rel1" class="er relationshipLabel">habit</text><rect height="14" width="19.359375" y="125.74607849121094" x="391.169677734375" class="er relationshipLabelBox"/><text style="text-anchor: middle; dominant-baseline: middle; font-size: 12px;" y="132.74607849121094" x="400.849365234375" id="rel2" class="er relationshipLabel">day</text><rect height="14" width="26.6875" y="122.23387145996094" x="243.678955078125" class="er relationshipLabelBox"/><text style="text-anchor: middle; dominant-baseline: middle; font-size: 12px;" y="129.23387145996094" x="257.022705078125" id="rel3" class="er relationshipLabel">habit</text></svg>